HIERARCHY
ROOT SimulationBone
{
	OFFSET 0.000000 0.000000 0.000000
	CHANNELS 6 Xposition Yposition Zposition Zrotation Yrotation Xrotation 
	JOINT Hips
	{
		OFFSET 0.000000 0.000000 0.000000
		CHANNELS 6 Xposition Yposition Zposition Zrotation Yrotation Xrotation 
		JOINT LeftUpLeg
		{
			OFFSET 0.103458 1.857820 10.548502
			CHANNELS 3 Zrotation Yrotation Xrotation
			JOINT LeftLeg
			{
				OFFSET 43.500000 -0.000023 -0.000011
				CHANNELS 3 Zrotation Yrotation Xrotation
				JOINT LeftFoot
				{
					OFFSET 42.372192 0.000038 0.000002
					CHANNELS 3 Zrotation Yrotation Xrotation
					JOINT LeftToe
					{
						OFFSET 17.299992 -0.000004 0.000006
						CHANNELS 3 Zrotation Yrotation Xrotation
						End Site
						{
							OFFSET 0.000000 0.000000 0.000000
						}
					}
				}
			}
		}
		JOINT RightUpLeg
		{
			OFFSET 0.103461 1.857814 -10.548508
			CHANNELS 3 Zrotation Yrotation Xrotation
			JOINT RightLeg
			{
				OFFSET 43.500042 -0.000015 0.000008
				CHANNELS 3 Zrotation Yrotation Xrotation
				JOINT RightFoot
				{
					OFFSET 42.372253 0.000008 0.000006
					CHANNELS 3 Zrotation Yrotation Xrotation
					JOINT RightToe
					{
						OFFSET 17.299973 -0.000014 0.000011
						CHANNELS 3 Zrotation Yrotation Xrotation
						End Site
						{
							OFFSET 0.000000 0.000000 0.000000
						}
					}
				}
			}
		}
		JOINT Spine
		{
			OFFSET 6.901966 -2.603737 -0.000007
			CHANNELS 3 Zrotation Yrotation Xrotation
			JOINT Spine1
			{
				OFFSET 12.588102 0.000017 0.000001
				CHANNELS 3 Zrotation Yrotation Xrotation
				JOINT Spine2
				{
					OFFSET 12.343197 -0.000013 0.000000
					CHANNELS 3 Zrotation Yrotation Xrotation
					JOINT Neck
					{
						OFFSET 25.832905 -0.000008 0.000000
						CHANNELS 3 Zrotation Yrotation Xrotation
						JOINT Head
						{
							OFFSET 11.766610 0.000009 -0.000002
							CHANNELS 3 Zrotation Yrotation Xrotation
							End Site
							{
								OFFSET 0.000000 0.000000 0.000000
							}
						}
					}
					JOINT LeftShoulder
					{
						OFFSET 19.745903 -1.480377 6.000115
						CHANNELS 3 Zrotation Yrotation Xrotation
						JOINT LeftArm
						{
							OFFSET 11.284125 -0.000014 -0.000024
							CHANNELS 3 Zrotation Yrotation Xrotation
							JOINT LeftForeArm
							{
								OFFSET 33.000046 -0.000012 0.000029
								CHANNELS 3 Zrotation Yrotation Xrotation
								JOINT LeftHand
								{
									OFFSET 25.199989 0.000034 0.000012
									CHANNELS 3 Zrotation Yrotation Xrotation
									End Site
									{
										OFFSET 0.000000 0.000000 0.000000
									}
								}
							}
						}
					}
					JOINT RightShoulder
					{
						OFFSET 19.746098 -1.480362 -6.000071
						CHANNELS 3 Zrotation Yrotation Xrotation
						JOINT RightArm
						{
							OFFSET 11.284137 -0.000006 -0.000008
							CHANNELS 3 Zrotation Yrotation Xrotation
							JOINT RightForeArm
							{
								OFFSET 33.000095 0.000017 0.000000
								CHANNELS 3 Zrotation Yrotation Xrotation
								JOINT RightHand
								{
									OFFSET 25.199778 0.000144 0.000423
									CHANNELS 3 Zrotation Yrotation Xrotation
									End Site
									{
										OFFSET 0.000000 0.000000 0.000000
									}
								}
							}
						}
					}
				}
			}
		}
	}
}
MOTION
Frames: 7
Frame Time: 0.016667
-35.289784 0.000000 -314.079086 0.000000 171.206680 0.000000 -14.180444 72.235199 -5.667006 69.981642 -14.444020 177.691275 136.951999 7.045897 164.665479 -74.516912 -2.139890 -4.177396 113.538602 2.957716 -4.296886 21.454551 0.003092 0.000000 157.585496 4.747301 -171.593545 -115.661903 -5.733879 14.164182 86.786807 -8.703494 4.468822 21.454565 -0.003109 -0.000014 11.696342 -2.292706 0.424906 13.378928 -4.619085 0.581750 13.059723 -4.615354 0.609701 -16.991936 -12.581172 -11.022892 -28.283939 12.722041 -21.524807 -179.635396 -71.589580 -1.790810 -8.136972 52.227508 4.858306 -86.302253 -6.185301 2.574310 -11.241285 -13.051079 17.989144 -170.816815 70.344703 10.821703 -11.112034 -54.707112 -19.088610 -88.282571 6.858234 -2.749916 -17.126592 8.904813 -42.260630 
-39.145672 0.000000 -316.418130 0.000000 170.294232 0.000000 -14.688225 72.742712 -4.917513 69.689884 -12.572306 179.487390 141.320597 5.225072 167.037072 -72.067824 -2.085209 -3.216584 114.040790 2.428915 -5.808335 21.454553 0.003091 -0.000000 150.454025 5.782213 -171.430277 -119.136755 -5.931755 14.906473 87.551305 -9.158672 4.866471 21.454558 -0.003111 -0.000019 11.454222 -1.809005 -0.013000 12.905352 -3.605108 -0.228154 12.586583 -3.606289 -0.206341 -18.313703 -11.567814 -10.152745 -28.242250 12.172984 -20.160032 177.129093 -73.821235 1.487561 -13.791979 53.287360 -2.112612 -90.625252 -3.511735 2.586440 -10.704138 -10.740428 17.856635 -167.632517 70.191970 14.105605 -4.113987 -53.047568 -23.964084 -88.438324 6.436283 -2.724498 -17.178360 10.725978 -40.373810 
-42.964025 0.000000 -318.833705 0.000000 169.410894 0.000000 -15.054785 73.329323 -4.246386 69.828691 -10.347087 -179.064804 146.218080 2.934997 169.533874 -68.722364 -1.972929 -2.476098 114.607705 2.054348 -7.525701 21.454553 0.003091 0.000000 143.238901 6.693100 -171.340541 -120.465903 -5.987140 15.378770 87.933992 -9.483228 4.968225 21.454558 -0.003109 -0.000020 11.312005 -1.205160 -0.476788 12.624942 -2.351025 -1.082590 12.306615 -2.357386 -1.068357 -19.777962 -10.883741 -9.146245 -27.630657 11.800547 -18.761882 174.384387 -76.172341 4.238307 -18.309578 54.281748 -6.928468 -95.537755 -1.709117 2.670821 -10.626023 -9.420463 16.762307 -165.385721 70.588820 16.420399 0.968561 -50.428956 -27.358872 -88.829942 5.829599 -2.702283 -17.476171 11.656272 -39.062227 
-46.749108 0.000000 -321.322349 0.000000 168.556389 0.000000 -15.288868 74.009602 -3.644135 70.147863 -7.939636 -178.090454 151.358673 0.297160 171.930109 -64.616684 -1.899823 -2.104946 114.543129 1.899582 -9.382463 21.454551 0.003092 0.000000 136.071543 7.320319 -171.459352 -119.689984 -5.884997 15.575818 87.907023 -9.633816 5.018386 21.454560 -0.003106 -0.000019 11.210333 -0.530855 -0.884448 12.416020 -0.963698 -1.820817 12.098033 -0.974538 -1.814956 -21.100565 -10.513077 -8.068122 -26.752846 11.554914 -17.413715 172.027923 -78.461659 6.575904 -21.950392 55.156327 -10.085911 -100.632429 -0.521997 2.809759 -10.819109 -8.667251 15.048714 -163.809247 71.395733 18.038077 4.411708 -47.184453 -29.752202 -89.257490 5.224667 -2.680251 -17.906115 12.024318 -38.154544 
-50.505185 0.000000 -323.880601 0.000000 167.730367 0.000000 -15.398217 74.798119 -3.100493 70.375918 -5.498706 -177.734712 156.491122 -2.511398 174.046880 -59.882228 -1.925376 -2.264668 113.145211 1.982417 -11.313320 21.454550 0.003092 0.000000 129.096161 7.469404 -171.878268 -116.853102 -5.579883 15.510750 87.440853 -9.569498 5.258318 21.454562 -0.003105 -0.000018 11.092593 0.163631 -1.154888 12.167980 0.447855 -2.286094 11.850125 0.434182 -2.288745 -21.999401 -10.453961 -6.980581 -25.912997 11.403040 -16.195116 170.057571 -80.492680 8.514219 -24.950277 55.731992 -12.051994 -105.493603 0.291543 2.972246 -11.085751 -8.056428 13.071578 -162.768584 72.455599 19.098104 6.563153 -43.547506 -31.715313 -89.521472 4.807894 -2.661646 -18.323649 12.152442 -37.470652 
-54.236522 0.000000 -326.505003 0.000000 166.932421 0.000000 -15.396289 75.683861 -2.611395 70.295570 -3.175167 -178.079370 161.416140 -5.268182 175.737804 -54.726862 -2.017462 -3.037397 109.823955 2.222060 -13.289191 21.454549 0.003092 -0.000000 122.519531 7.055784 -172.624664 -112.043163 -4.991003 15.165650 86.578022 -9.238375 5.838540 21.454559 -0.003109 -0.000018 10.922370 0.825949 -1.236035 11.814836 1.773809 -2.381395 11.496860 1.759533 -2.392049 -22.313125 -10.609770 -5.952454 -25.331558 11.262118 -15.115323 168.567676 -82.094278 9.969836 -27.456372 55.806706 -13.212851 -109.847082 0.924186 3.118121 -11.264142 -7.243381 11.296967 -162.213325 73.592505 19.655772 7.714100 -39.725920 -33.675807 -89.460514 4.719292 -2.651985 -18.612259 12.288537 -36.868792 
-57.947383 0.000000 -329.192092 0.000000 166.162086 0.000000 -15.323044 76.553497 -2.199011 69.974706 -1.177031 -178.860367 166.017583 -7.702499 176.809514 -49.702637 -1.946552 -4.125010 104.449089 2.303131 -15.369801 21.454550 0.003092 -0.000000 116.746838 6.527694 -173.666794 -105.513007 -3.960153 14.335292 85.642778 -8.566404 6.563409 21.454557 -0.003112 -0.000018 10.734252 1.396435 -1.187565 11.430967 2.903301 -2.231852 11.112691 2.889905 -2.249337 -22.355793 -10.453770 -5.068816 -24.896757 10.792806 -13.909504 167.506959 -83.226296 11.002237 -29.337915 55.355935 -13.728807 -113.995508 1.421793 3.260733 -11.273731 -6.242642 10.614599 -162.168088 74.587786 19.690896 8.117397 -36.033540 -35.587026 -89.064901 4.913876 -2.648706 -18.819440 12.391070 -36.360733 
